<svg width="67" height="50" viewBox="0 0 67 50" fill="none" xmlns="http://www.w3.org/2000/svg">
<path d="M3.84747 23.4596H24.9375L22.5679 38.3885L26.1224 37.9146L34.4162 14.4548H41.7622L31.3356 42.6539H7.87591L3.84747 23.4596Z" fill="#FCE3AB"/>
<path fill-rule="evenodd" clip-rule="evenodd" d="M16.4066 0H52.1887V8.41474L65.2916 15.8654L63.7898 17.1828C62.6276 18.2022 61.1439 19.7195 59.6245 21.61C60.7315 22.2125 61.7739 22.9688 62.6737 23.7122C64.0521 24.8511 65.1918 26.0404 65.8383 26.8128L66.7438 27.8948L65.6688 28.8086C62.4876 31.5126 56.1121 37.0635 52.6257 41.8343L52.1887 42.4325V44.7868H50.4682L50.4384 44.8276L50.4342 44.7868H6.69689L0 9.24171H11.6673C12.4525 9.24171 13.0891 9.87828 13.0891 10.6635C13.0891 11.4488 12.4525 12.0853 11.6673 12.0853H3.42938L3.87581 14.4548H36.4498L27.3533 39.3364H8.56364L9.05477 41.9432H49.3451V9.26478C49.3448 9.24865 49.3448 9.2325 49.3451 9.21634V2.8436H19.2502V12.0853H16.4066V0ZM52.1887 11.6859V28.2321C53.2869 25.728 54.7054 23.4247 56.258 21.3213C57.6939 19.376 59.1665 17.7045 60.4751 16.3978L52.1887 11.6859ZM8.02789 36.4928L4.41157 17.2984H32.3825L25.3652 36.4928H8.02789ZM52.834 37.0828C53.1879 32.1394 55.2107 27.7689 57.8961 23.9156C58.8931 24.4093 59.9159 25.1223 60.8625 25.9044C61.5644 26.4843 62.1948 27.0775 62.7074 27.5997C60.0571 29.8831 56.047 33.4653 52.834 37.0828Z" fill="#7D4A4F"/>
<path d="M15.2218 47.8671C15.2218 49.0449 14.2669 49.9998 13.0891 49.9998C11.9112 49.9998 10.9564 49.0449 10.9564 47.8671C10.9564 46.6892 11.9112 45.7344 13.0891 45.7344C14.2669 45.7344 15.2218 46.6892 15.2218 47.8671Z" fill="#245D67"/>
<path d="M27.0701 47.8671C27.0701 49.0449 26.1152 49.9998 24.9374 49.9998C23.7595 49.9998 22.8047 49.0449 22.8047 47.8671C22.8047 46.6892 23.7595 45.7344 24.9374 45.7344C26.1152 45.7344 27.0701 46.6892 27.0701 47.8671Z" fill="#245D67"/>
</svg>
